<svg id="awesome-obsidian-svg-main" xmlns="http://www.w3.org/2000/svg" viewBox="0 0 525 260" width="672" height="224" class="select-none "><defs><radialGradient id="ao-glow-main" cx="50%" cy="50%" r="50%"><stop offset="0%" stop-color="#7C3AED" stop-opacity="0.8"/><stop offset="60%" stop-color="#A855F7" stop-opacity="0.25"/><stop offset="100%" stop-color="#7C3AED" stop-opacity="0"/></radialGradient><linearGradient id="ao-facet-top-left-main" x1="0%" y1="0%" x2="100%" y2="100%"><stop offset="0%" stop-color="#C084FC"/><stop offset="100%" stop-color="#7C3AED"/></linearGradient><linearGradient id="ao-facet-top-right-main" x1="100%" y1="0%" x2="0%" y2="100%"><stop offset="0%" stop-color="#FFFFFF" stop-opacity="0.9"/><stop offset="40%" stop-color="#A855F7"/><stop offset="100%" stop-color="#7C3AED"/></linearGradient><linearGradient id="ao-facet-center-main" x1="0%" y1="0%" x2="100%" y2="100%"><stop offset="0%" stop-color="#A855F7"/><stop offset="50%" stop-color="#7C3AED"/><stop offset="100%" stop-color="#4C1D95"/></linearGradient><linearGradient id="ao-facet-left-flank-main" x1="0%" y1="50%" x2="100%" y2="50%"><stop offset="0%" stop-color="#3B0764"/><stop offset="100%" stop-color="#7C3AED"/></linearGradient><linearGradient id="ao-facet-right-flank-main" x1="0%" y1="50%" x2="100%" y2="50%"><stop offset="0%" stop-color="#7C3AED"/><stop offset="100%" stop-color="#A855F7"/></linearGradient><linearGradient id="ao-facet-bottom-left-main" x1="50%" y1="0%" x2="50%" y2="100%"><stop offset="0%" stop-color="#7C3AED"/><stop offset="100%" stop-color="#2E1065"/></linearGradient><linearGradient id="ao-facet-bottom-right-main" x1="0%" y1="0%" x2="100%" y2="100%"><stop offset="0%" stop-color="#A855F7"/><stop offset="100%" stop-color="#7C3AED"/></linearGradient><linearGradient id="ao-text-grad-main" x1="0%" y1="0%" x2="100%" y2="0%"><stop offset="0%" stop-color="#7C3AED"/><stop offset="100%" stop-color="#A855F7"/></linearGradient><filter id="ao-blur-sm-main" x="-30%" y="-30%" width="160%" height="160%"><feGaussianBlur stdDeviation="2"/></filter></defs><g><g transform="translate(140, 130) scale(0.95)"><ellipse cx="0" cy="0" rx="80.75" ry="80.75" fill="url(#ao-glow-main)" opacity="0.75" style="mix-blend-mode: screen;"/><g class="transition-opacity duration-300"><path d="&#10;                M -75 -40 L -45 -85 L 0 -105 L 45 -85 L 75 -40&#10;                M -75 -40 L -90 15 L -60 75 L 0 110 L 60 75 L 90 15 L 75 -40&#10;                M -45 -85 L 0 -45 L 45 -85&#10;                M -90 15 L -35 15 L 0 -45 L 35 15 L 90 15&#10;                M -60 75 L 0 55 L 60 75&#10;                M 0 55 L 0 110&#10;              " fill="none" stroke="rgba(168, 85, 247, 0.35)" stroke-width="1.5" stroke-dasharray="3 3"/><path d="&#10;                M -45 -85 L -85 -105&#10;                M 45 -85 L 85 -105&#10;                M -90 15 L -120 40&#10;                M 90 15 L 120 40&#10;                M 0 110 L 0 135&#10;                M -60 75 L -95 110&#10;                M 60 75 L 95 110&#10;              " fill="none" stroke="rgba(192, 132, 252, 0.25)" stroke-width="1.2"/><circle cx="-85" cy="-105" r="3.5" fill="#C084FC" opacity="0.8"/><circle cx="85" cy="-105" r="3.5" fill="#A855F7" opacity="0.8"/><circle cx="-120" cy="40" r="3" fill="#7C3AED" opacity="0.8"/><circle cx="120" cy="40" r="3" fill="#C084FC" opacity="0.8"/><circle cx="0" cy="135" r="3.5" fill="#A855F7" opacity="0.8"/><circle cx="-95" cy="110" r="2.5" fill="#7C3AED" opacity="0.7"/><circle cx="95" cy="110" r="2.5" fill="#C084FC" opacity="0.7"/><g><circle cx="-75" cy="-40" r="4.5" fill="#A855F7"/><circle cx="-45" cy="-85" r="5" fill="#7C3AED"/><circle cx="0" cy="-105" r="5.5" fill="#C084FC"/><circle cx="45" cy="-85" r="5" fill="#7C3AED"/><circle cx="75" cy="-40" r="4.5" fill="#A855F7"/><circle cx="90" cy="15" r="4.5" fill="#C084FC"/><circle cx="60" cy="75" r="4" fill="#A855F7"/><circle cx="0" cy="110" r="5" fill="#7C3AED"/><circle cx="-60" cy="75" r="4" fill="#C084FC"/><circle cx="-90" cy="15" r="4.5" fill="#7C3AED"/></g></g><g id="obsidian-crystal-core"><polygon points="0,-80 58,-28 44,52 0,92 -44,52 -58,-28" fill="rgba(0,0,0,0.45)"/><polygon points="0,-80 -58,-28 -18,-18 0,-45" fill="url(#ao-facet-top-left-main)" stroke="rgba(255,255,255,0.2)" stroke-width="1.2" stroke-linejoin="round"/><polygon points="0,-80 58,-28 18,-18 0,-45" fill="url(#ao-facet-top-right-main)" stroke="rgba(255,255,255,0.25)" stroke-width="1.2" stroke-linejoin="round"/><polygon points="0,-45 -18,-18 0,35 18,-18" fill="url(#ao-facet-center-main)" stroke="rgba(255,255,255,0.35)" stroke-width="1.5" stroke-linejoin="round"/><polygon points="-58,-28 -44,52 -22,18 -18,-18" fill="url(#ao-facet-left-flank-main)" stroke="rgba(255,255,255,0.15)" stroke-width="1.2" stroke-linejoin="round"/><polygon points="58,-28 44,52 22,18 18,-18" fill="url(#ao-facet-right-flank-main)" stroke="rgba(255,255,255,0.2)" stroke-width="1.2" stroke-linejoin="round"/><polygon points="-44,52 0,92 0,35 -22,18" fill="url(#ao-facet-bottom-left-main)" stroke="rgba(255,255,255,0.2)" stroke-width="1.2" stroke-linejoin="round"/><polygon points="44,52 0,92 0,35 22,18" fill="url(#ao-facet-bottom-right-main)" stroke="rgba(255,255,255,0.25)" stroke-width="1.2" stroke-linejoin="round"/><line x1="0" y1="-80" x2="0" y2="-45" stroke="#FFFFFF" stroke-width="1.8" stroke-linecap="round" opacity="0.8"/><line x1="0" y1="35" x2="0" y2="92" stroke="#FFFFFF" stroke-width="1.5" stroke-linecap="round" opacity="0.7"/><circle cx="0" cy="-45" r="4" fill="#FFFFFF" filter="url(#ao-blur-sm-main)"/><circle cx="0" cy="35" r="3.5" fill="#FFFFFF" filter="url(#ao-blur-sm-main)"/><circle cx="-18" cy="-18" r="3" fill="#C084FC"/><circle cx="18" cy="-18" r="3" fill="#C084FC"/></g><g transform="translate(42, -60)"><circle cx="0" cy="0" r="18" fill="#F59E0B" stroke="#FFFFFF" stroke-width="2.5"/><path d="M 0 -11 Q 0 0 11 0 Q 0 0 0 11 Q 0 0 -11 0 Q 0 0 0 -11 Z" fill="#FFFFFF"/></g></g><g transform="translate(300, 85)"><g transform="translate(0, 0)"><rect x="0" y="0" width="122" height="28" rx="14" fill="#7C3AED" opacity="0.2"/><rect x="0" y="0" width="122" height="28" rx="14" fill="none" stroke="#7C3AED" stroke-width="1.5" opacity="0.8"/><path d="M 16 9 Q 16 14 21 14 Q 16 14 16 19 Q 16 14 11 14 Q 16 14 16 9 Z" fill="#7C3AED"/><text x="68" y="18" fill="#F1F5F9" font-size="12" font-weight="700" letter-spacing="2.5" text-anchor="middle" font-family="'Plus Jakarta Sans', system-ui, sans-serif">AWESOME</text></g><text x="0" y="68" fill="#F1F5F9" font-size="48" font-weight="800" letter-spacing="-0.5" font-family="'Plus Jakarta Sans', system-ui, sans-serif">Obsidian</text><g transform="translate(0, 100)"><text x="0" y="0" fill="#94A3B8" font-size="14" font-weight="500" font-family="'Fira Code', monospace"><tspan fill="#7C3AED" font-weight="700">[[</tspan>GitHub Repository<tspan fill="#7C3AED" font-weight="700">]]</tspan></text></g></g></g></svg>
